<svg width="62" height="61" viewBox="0 0 62 61" fill="none" xmlns="http://www.w3.org/2000/svg">
<path d="M54.0382 13.444L38.9662 6.80176L0 40C0 40 9.27833 46.2533 15.5 52C21.605 57.6347 34.5 61 34.5 61L54.0382 13.444Z" fill="url(#paint0_linear_1625_445)" fill-opacity="0.5"/>
<path d="M61.9008 0.546875L54.0538 13.4284C54.0227 13.4732 53.9604 13.4955 53.906 13.4732L47.311 10.4132L61.9008 0.546875Z" fill="white"/>
<path d="M44.4801 9.26453L38.935 6.89123C38.8961 6.8763 38.8961 6.8166 38.9428 6.80167L61.9007 0.540039L44.4801 9.26453Z" fill="white"/>
<path d="M47.3113 10.4058L44.9938 14.7494L44.4805 9.2639L61.9011 0.546875L47.3113 10.4058Z" fill="url(#paint1_linear_1625_445)"/>
<path d="M49.8854 11.6153L44.9937 14.7498L47.3112 10.4062L49.8854 11.6153Z" fill="#FF5C67"/>
<defs>
<linearGradient id="paint0_linear_1625_445" x1="42.118" y1="6.80251" x2="30.2026" y2="41.1922" gradientUnits="userSpaceOnUse">
<stop stop-color="#FAFAFA" stop-opacity="0.8"/>
<stop offset="0.8664" stop-color="white" stop-opacity="0"/>
</linearGradient>
<linearGradient id="paint1_linear_1625_445" x1="36.2799" y1="16.7254" x2="60.4796" y2="2.07917" gradientUnits="userSpaceOnUse">
<stop offset="0.0254101" stop-color="#FF5C67"/>
<stop offset="0.1074" stop-color="#FF6A63"/>
<stop offset="0.3813" stop-color="#FF9257"/>
<stop offset="0.6307" stop-color="#FFB04F"/>
<stop offset="0.8452" stop-color="#FFC24A"/>
<stop offset="1" stop-color="#FFC848"/>
</linearGradient>
</defs>
</svg>
