<svg width="112" height="29" viewBox="0 0 112 29" fill="none" xmlns="http://www.w3.org/2000/svg">
<path d="M0.42 28H19.078V23.744H5.094V1.4H0.42V28ZM49.0639 14.662C49.0639 12.7873 48.7219 11.014 48.0379 9.342C47.3539 7.67 46.4039 6.21333 45.1879 4.972C43.9719 3.73067 42.5152 2.75533 40.8179 2.046C39.1205 1.31133 37.2459 0.944 35.1939 0.944C33.1419 0.944 31.2672 1.31133 29.5699 2.046C27.8725 2.78067 26.4032 3.78133 25.1619 5.048C23.9205 6.28933 22.9579 7.746 22.2739 9.418C21.5899 11.09 21.2479 12.8633 21.2479 14.738C21.2479 16.6127 21.5899 18.386 22.2739 20.058C22.9579 21.73 23.9079 23.1867 25.1239 24.428C26.3399 25.6693 27.7965 26.6573 29.4939 27.392C31.1912 28.1013 33.0659 28.456 35.1179 28.456C37.1699 28.456 39.0445 28.0887 40.7419 27.354C42.4392 26.6193 43.9085 25.6313 45.1499 24.39C46.3912 23.1233 47.3539 21.654 48.0379 19.982C48.7219 18.31 49.0639 16.5367 49.0639 14.662ZM44.1619 14.738C44.1619 16.03 43.9339 17.2587 43.4779 18.424C43.0472 19.564 42.4392 20.5647 41.6539 21.426C40.8685 22.262 39.9185 22.9333 38.8039 23.44C37.7145 23.9213 36.5112 24.162 35.1939 24.162C33.8765 24.162 32.6605 23.9087 31.5459 23.402C30.4312 22.8953 29.4685 22.2113 28.6579 21.35C27.8725 20.4887 27.2519 19.488 26.7959 18.348C26.3652 17.1827 26.1499 15.954 26.1499 14.662C26.1499 13.37 26.3652 12.154 26.7959 11.014C27.2519 9.84867 27.8725 8.848 28.6579 8.012C29.4432 7.15067 30.3805 6.47933 31.4699 5.998C32.5845 5.49133 33.8005 5.238 35.1179 5.238C36.4352 5.238 37.6512 5.49133 38.7659 5.998C39.8805 6.50467 40.8305 7.18867 41.6159 8.05C42.4265 8.91133 43.0472 9.92467 43.4779 11.09C43.9339 12.23 44.1619 13.446 44.1619 14.738ZM78.423 24.314V13.142H67.099V17.208H73.901V22.186C73.0903 22.794 72.1277 23.288 71.013 23.668C69.9237 24.0227 68.7457 24.2 67.479 24.2C66.111 24.2 64.8697 23.9593 63.755 23.478C62.6657 22.9967 61.7157 22.338 60.905 21.502C60.1197 20.6407 59.5117 19.6273 59.081 18.462C58.6503 17.2967 58.435 16.03 58.435 14.662C58.435 13.37 58.6503 12.154 59.081 11.014C59.537 9.874 60.145 8.87333 60.905 8.012C61.6903 7.15067 62.6023 6.47933 63.641 5.998C64.705 5.49133 65.845 5.238 67.061 5.238C67.897 5.238 68.657 5.314 69.341 5.466C70.0503 5.59267 70.6963 5.78267 71.279 6.036C71.8617 6.264 72.419 6.55533 72.951 6.91C73.483 7.26467 74.0023 7.65733 74.509 8.088L77.473 4.554C76.789 3.97133 76.0797 3.46467 75.345 3.034C74.6357 2.578 73.8757 2.198 73.065 1.894C72.2543 1.59 71.3677 1.362 70.405 1.21C69.4677 1.03267 68.4163 0.944 67.251 0.944C65.2497 0.944 63.4003 1.31133 61.703 2.046C60.031 2.78067 58.587 3.78133 57.371 5.048C56.155 6.28933 55.205 7.746 54.521 9.418C53.8623 11.09 53.533 12.8633 53.533 14.738C53.533 16.6887 53.8623 18.5 54.521 20.172C55.1797 21.844 56.1043 23.3007 57.295 24.542C58.511 25.758 59.9677 26.7207 61.665 27.43C63.3623 28.114 65.2497 28.456 67.327 28.456C68.4923 28.456 69.607 28.342 70.671 28.114C71.735 27.9113 72.723 27.62 73.635 27.24C74.5723 26.86 75.4337 26.4167 76.219 25.91C77.0297 25.4033 77.7644 24.8713 78.423 24.314ZM111.148 14.662C111.148 12.7873 110.806 11.014 110.122 9.342C109.438 7.67 108.488 6.21333 107.272 4.972C106.056 3.73067 104.599 2.75533 102.902 2.046C101.205 1.31133 99.3298 0.944 97.2778 0.944C95.2258 0.944 93.3512 1.31133 91.6538 2.046C89.9565 2.78067 88.4872 3.78133 87.2458 5.048C86.0045 6.28933 85.0418 7.746 84.3578 9.418C83.6738 11.09 83.3318 12.8633 83.3318 14.738C83.3318 16.6127 83.6738 18.386 84.3578 20.058C85.0418 21.73 85.9918 23.1867 87.2078 24.428C88.4238 25.6693 89.8805 26.6573 91.5778 27.392C93.2752 28.1013 95.1498 28.456 97.2018 28.456C99.2538 28.456 101.129 28.0887 102.826 27.354C104.523 26.6193 105.993 25.6313 107.234 24.39C108.475 23.1233 109.438 21.654 110.122 19.982C110.806 18.31 111.148 16.5367 111.148 14.662ZM106.246 14.738C106.246 16.03 106.018 17.2587 105.562 18.424C105.131 19.564 104.523 20.5647 103.738 21.426C102.953 22.262 102.003 22.9333 100.888 23.44C99.7985 23.9213 98.5952 24.162 97.2778 24.162C95.9605 24.162 94.7445 23.9087 93.6298 23.402C92.5152 22.8953 91.5525 22.2113 90.7418 21.35C89.9565 20.4887 89.3358 19.488 88.8798 18.348C88.4492 17.1827 88.2338 15.954 88.2338 14.662C88.2338 13.37 88.4492 12.154 88.8798 11.014C89.3358 9.84867 89.9565 8.848 90.7418 8.012C91.5272 7.15067 92.4645 6.47933 93.5538 5.998C94.6685 5.49133 95.8845 5.238 97.2018 5.238C98.5192 5.238 99.7352 5.49133 100.85 5.998C101.965 6.50467 102.915 7.18867 103.7 8.05C104.511 8.91133 105.131 9.92467 105.562 11.09C106.018 12.23 106.246 13.446 106.246 14.738Z" fill="#8C8A8A"/>
</svg>
