<?xml version="1.0" encoding="UTF-8"?><svg id="_レイヤー_2" xmlns="http://www.w3.org/2000/svg" viewBox="0 0 262.4 207.22"><defs><style>.cls-1{fill:#323333;}</style></defs><g id="_レイヤー_1-2"><rect class="cls-1" x="29.16" y="120.88" width="9.85" height="86.34"/><path class="cls-1" d="m24.53,120.88v86.34h-5.49c-10.52,0-19.04-8.53-19.04-19.05v-48.24c0-10.52,8.52-19.05,19.04-19.05h5.49Z"/><rect class="cls-1" x="223.39" y="120.88" width="9.85" height="86.34" transform="translate(456.62 328.1) rotate(-180)"/><path class="cls-1" d="m237.87,120.88v86.34s5.49,0,5.49,0c10.52,0,19.04-8.53,19.04-19.05v-48.24c0-10.52-8.52-19.05-19.04-19.05h-5.49Z"/><path class="cls-1" d="m237.74,115.74h-14.78c-2.51-48.5-42.63-87.06-91.76-87.06S41.95,67.24,39.44,115.74h-14.78C27.33,59.22,74.01,14.21,131.2,14.21s103.87,45.01,106.54,101.53Z"/><path class="cls-1" d="m199.64,33.69c-18.66-15.21-42.49-24.33-68.44-24.33s-49.78,9.12-68.44,24.33c2.05-5.82,4.82-11.29,8.2-16.32C88.4,6.36,109.06,0,131.2,0s42.8,6.36,60.24,17.37c3.38,5.03,6.15,10.5,8.2,16.32Z"/></g></svg>