<svg fill="none" height="180" viewBox="0 0 180 180" width="180" xmlns="http://www.w3.org/2000/svg" xmlns:xlink="http://www.w3.org/1999/xlink"><linearGradient id="a"><stop offset="0" stop-color="#ff4944"/><stop offset="1" stop-color="#ffc661"/></linearGradient><linearGradient id="b" gradientUnits="userSpaceOnUse" x1="108.145" x2="108.145" xlink:href="#a" y1="-10.0438" y2="149.077"/><linearGradient id="c" gradientUnits="userSpaceOnUse" x1="108.041" x2="108.041" y1="0" y2="144.421"><stop offset="0" stop-color="#ff6965"/><stop offset="1" stop-color="#ff6965" stop-opacity="0"/></linearGradient><linearGradient id="d" gradientUnits="userSpaceOnUse" x1="86.1041" x2="86.1041" xlink:href="#a" y1="7.53125" y2="180"/><linearGradient id="e" gradientUnits="userSpaceOnUse" x1="85.8999" x2="85.8999" xlink:href="#a" y1="25.9531" y2="161.165"/><path d="m179.783 33.9621c-3.028-14.8419-24.52-1.5471-30.345-3.9858-4.768-1.9982-5.63-7.4472-5.651-11.0763.165-.3462.329-.6923.503-1.0332.493-.9807.847-2.0086 1.073-3.0418.99-4.7043-.626-9.89631-4.614-12.90664-4.798-3.66064-11.87-2.040096-15.267 4.49976-6.651 12.86468-11.434 27.20308-13.867 42.50638-.169-.0996-.323-.173-.477-.2307-7.703-4.5732-16.7152-7.101-26.3172-6.865-26.5991.6713-48.2151 22.8816-48.7283 50.0742-.5388 28.556 21.8521 51.899 49.6264 52.099 27.4721.199 50.1501-22.636 50.3501-50.7093.056-7.6726-1.55-14.9572-4.46-21.5023-.072-.1573-.097-.3251-.072-.4982.36-2.7429 3.003-27.8796 6.544-38.4315.708-2.124 1.473-4.206 2.304-6.2566.103 1.4527.503 2.9264 1.329 4.3424 3.264 5.5749 14.298 11.3805 15.268 17.8836.646 4.3739-7.01 9.9068-7.472 10.2477.97-.2832 33.363-9.9907 30.284-25.1105z" fill="url(#b)"/><path clip-rule="evenodd" d="m125.354 6.48869c3.42-6.602387 10.557-8.25815 15.411-4.54444 4.021 3.04392 5.648 8.29045 4.65 13.04115v.0009c-.227 1.0437-.584 2.0823-1.081 3.0735v.0008c-.169.3315-.329.6683-.489 1.0069.012 1.805.234 4.0488 1.035 6.0879.804 2.0469 2.191 3.883 4.535 4.8686.702.2946 1.652.3555 2.795.2547 1.141-.1006 2.462-.3607 3.899-.6966.961-.2245 1.973-.4829 3.017-.7494 2.073-.5291 4.269-1.0896 6.423-1.4774 3.238-.5832 6.41-.7825 8.966.1074 1.28.4458 2.408 1.1652 3.31 2.2462.893 1.07 1.562 2.4888 1.945 4.3348l.01.0053.011.0552c.779 3.8334-.688 7.3155-3.317 10.3762-2.627 3.0595-6.425 5.7104-10.342 7.8921-7.833 4.364-16.17 6.8677-16.657 7.0102l-.098-.2064c.009-.0062.02-.0142.033-.0238.345-.2544 2.286-1.6839 4.098-3.5794.941-.9838 1.843-2.0895 2.469-3.2179.627-1.13.971-2.2699.815-3.328-.238-1.5987-1.094-3.1638-2.308-4.7042-1.214-1.5398-2.777-3.046-4.418-4.5277-.596-.5386-1.203-1.0746-1.807-1.6075-1.054-.9302-2.097-1.8513-3.055-2.7621-1.508-1.4332-2.817-2.8524-3.641-4.2627v-.0002c-.746-1.2816-1.148-2.61-1.299-3.9275-.762 1.91-1.467 3.8479-2.123 5.8221v.0002c-1.764 5.2711-3.306 14.1945-4.453 22.1519-.884 6.1358-1.532 11.6865-1.864 14.5374-.099.8458-.17 1.454-.211 1.7693v.002c-.022.1498-.001.2947.062.4322l.001.0011c2.911 6.5686 4.519 13.8792 4.462 21.579-.2 28.1735-22.894 51.0895-50.3846 50.8895-27.7937-.2-50.2001-23.626-49.6609-52.2842.5136-27.2897 22.1442-49.5791 48.7622-50.2528h.0001c9.6048-.2367 18.6202 2.2982 26.3262 6.8845.113.0427.225.0934.342.1556 2.439-15.2745 7.208-29.5874 13.83-42.43421zm.201.10914c-6.635 12.86997-11.407 27.21467-13.833 42.52517l-.027.1665-.143-.0842c-.163-.0968-.311-.1674-.458-.2227l-.01-.0035-.008-.0051c-7.674-4.5685-16.6505-7.0939-26.2157-6.8581-26.4961.6706-48.0291 22.8591-48.5403 50.0244-.5368 28.5277 21.7678 51.8477 49.435 52.0467 27.365.199 49.956-22.613 50.156-50.6582.056-7.6652-1.544-14.9424-4.443-21.4808-.08-.177-.109-.3674-.08-.5635.04-.3125.111-.9169.209-1.7581.332-2.8478.981-8.4102 1.866-14.5509 1.146-7.955 2.691-16.8988 4.462-22.1931.708-2.129 1.473-4.2161 2.304-6.2718l.218.0362c.102 1.4381.496 2.8959 1.312 4.2968.806 1.3806 2.095 2.7813 3.6 4.2114.955.9083 1.992 1.8239 3.043 2.7517.605.5336 1.214 1.0713 1.815 1.6139 1.642 1.4833 3.218 3.0002 4.444 4.5561 1.226 1.5553 2.109 3.1586 2.356 4.8156v.0002c.167 1.1316-.203 2.3265-.842 3.4778-.64 1.1526-1.557 2.2745-2.504 3.2658-1.391 1.4543-2.855 2.6355-3.628 3.2294 2.148-.6761 9.252-3.0493 15.981-6.7976 3.906-2.1762 7.677-4.8116 10.279-7.8414 2.589-3.0137 4.01-6.4051 3.277-10.1198l-.01-.0052-.012-.0551c-.374-1.8423-1.033-3.2407-1.906-4.2861-.872-1.0451-1.963-1.7429-3.21-2.1771-2.5-.87-5.623-.6804-8.854-.0985-2.146.3865-4.327.9433-6.395 1.4712-1.046.267-2.064.5267-3.033.7533-1.44.3365-2.773.5996-3.93.7016-1.155.1018-2.149.0445-2.901-.2713l.043-.1078-.043.1078c-2.415-1.0152-3.839-2.9074-4.66-4.9972-.821-2.0874-1.042-4.3762-1.052-6.2005v-.0271l.012-.0243c.163-.3461.328-.6941.503-1.0371 0-.0002 0-.0004 0-.0006l.101.054-.101-.0532s0-.0001 0-.0002c.487-.9726.837-1.9924 1.061-3.0176v.0008l.111.0244-.111-.0253v.0001c.98-4.6697-.621-9.82-4.563-12.80434l-.001-.00035c-4.727-3.61676-11.711-2.02722-15.074 4.46682z" fill="url(#c)" fill-rule="evenodd"/><path d="m95.7791 70.7462c-22.5767-.2096-23.0134 31.2208-45.5901 31.0118-6.0667-.058-10.4691-2.3685-14.106-5.7216 1.5565 26.7576 23.3216 47.9656 49.9514 47.9656 24.6416 0 45.1176-18.164 49.2736-42.077-17.466-4.5736-18.832-30.9902-39.5289-31.1788z" fill="#fff" fill-opacity=".3" opacity=".8"/><path clip-rule="evenodd" d="m95.7791 70.7462-.002.2324c-11.1585-.1036-16.8473 7.5941-22.6107 15.4129l-.0222.0301c-5.7361 7.782-11.5536 15.6744-22.9573 15.5684-5.902-.056-10.2496-2.2247-13.8405-5.4049 1.8194 26.3699 23.3667 47.1849 49.688 47.1849 24.4566 0 44.7916-17.975 49.0116-41.674-4.321-1.182-7.657-3.6913-10.538-6.7855-2.389-2.5661-4.475-5.546-6.55-8.5102-.462-.6599-.924-1.3191-1.388-1.9728-5.11-7.1972-10.566-13.7557-20.7929-13.8489zm39.5289 31.1788c-7.936-2.078-12.549-8.6663-17.161-15.2546-5.538-7.9107-11.076-15.8213-22.3679-15.9242-11.2883-.1048-17.0417 7.7005-22.795 15.5057-5.7534 7.8053-11.5067 15.6101-22.7951 15.5061-5.9329-.057-10.274-2.2676-13.8642-5.5013-.081-.0729-.1616-.1464-.2418-.2203.0064.1103.0132.2206.0203.3308 1.7158 26.6008 23.4112 47.6348 49.9311 47.6348 24.6416 0 45.1176-18.164 49.2736-42.077z" fill="#ff6965" fill-rule="evenodd" opacity=".8"/><path d="m93.1245 119.538c-25.463-.208-24.9752-31.4224-50.4434-31.6305-2.3209-.0208-4.4312.2237-6.3773.6815-.1438 1.5555-.2208 3.1371-.2208 4.729 0 27.989 22.3925 50.682 50.0224 50.682 27.6296 0 50.0226-22.688 50.0226-50.682 0-1.1029-.041-2.2006-.108-3.2827-17.458 5.8579-20.631 29.6847-42.8955 29.5027z" fill="#fff" fill-opacity=".4" opacity=".8"/><path clip-rule="evenodd" d="m42.6793 88.1382h-.0002c-2.2399-.02-4.2801.2088-6.1634.6384-.1334 1.4952-.2047 3.0136-.2047 4.5414 0 27.862 22.2906 50.452 49.7944 50.452 27.5036 0 49.7946-22.585 49.7946-50.452 0-.9952-.034-1.9868-.09-2.9673-7.247 2.535-11.996 8.2055-16.793 13.9323-.818.977-1.637 1.956-2.471 2.921-5.77 6.679-12.188 12.657-23.4233 12.565-12.8389-.105-19.1444-8.037-25.3789-15.88l-.0167-.021c-6.2489-7.8618-12.4326-15.6267-25.0478-15.7298zm93.1167 1.9734c.075-.0258.149-.0512.224-.0763.005.0794.01.1588.014.2384.058 1.0048.094 2.0223.094 3.0443 0 27.994-22.393 50.682-50.0226 50.682-27.6299 0-50.0224-22.693-50.0224-50.682 0-1.5919.077-3.1735.2208-4.729 1.9461-.4578 4.0564-.7023 6.3773-.6815 12.7348.104 18.9798 7.9605 25.2246 15.8165 6.2441 7.855 12.488 15.71 25.2188 15.814 12.7345.105 19.2235-7.646 25.7115-15.396 4.807-5.7417 9.614-11.4832 16.96-14.0304z" fill="#ff6965" fill-rule="evenodd" opacity=".8"/><path d="m40.5899 115.127c8.1718 17.098 25.3624 28.879 45.2493 28.879 15.3878 0 29.1638-7.056 38.3948-18.168-26.7106-.891-26.6847-21.876-54.3922-22.018-14.6078-.074-21.7981 5.722-29.2467 11.307z" fill="#fff" fill-opacity=".5" opacity=".8"/><g clip-rule="evenodd" fill-rule="evenodd"><path d="m40.6939 115.343c-.0331-.068-.066-.137-.0988-.205-.0017-.004-.0034-.007-.0052-.011h.0052c.0034-.003.0068-.005.0102-.008.2512-.188.5021-.377.7531-.565 7.1855-5.401 14.3749-10.805 28.4834-10.734 14.1072.073 21.0251 5.548 27.9429 11.023 6.6193 5.24 13.2393 10.479 26.1573 10.984.097.004.194.008.292.011-.063.076-.127.152-.19.227-9.229 10.981-22.922 17.941-38.2048 17.941-19.803 0-36.9323-11.682-45.1453-28.663zm.1877-.141c8.1688 16.925 25.2309 28.57 44.9576 28.57 15.1478 0 28.7258-6.868 37.9118-17.718-12.872-.551-19.509-5.804-26.104-11.024-.1253-.099-.2505-.198-.3758-.297-3.3985-2.688-6.8086-5.336-11.0927-7.325-4.2802-1.987-9.4416-3.319-16.3378-3.354-14.0322-.071-21.1698 5.294-28.3487 10.69-.2034.153-.4068.306-.6104.458z" fill="#ff6965" opacity=".8"/><path d="m0 93.7675c0-47.6401 38.5643-86.23625 86.1002-86.23625.1456 0 .2911.0004.4365.0012 2.9037.01594 5.0603 2.64385 4.8469 5.55495-.2059 2.8077-2.5604 4.9277-5.2795 4.9277-41.7963 0-75.6584 33.9314-75.6584 75.7524 0 41.8205 33.8582 75.7525 75.6584 75.7525 41.7999 0 75.6619-33.928 75.6619-75.7525 0-4.9391-.473-9.7668-1.375-14.442-.534-2.7711.965-5.6112 3.637-6.4678 2.826-.9059 5.872.7731 6.48 3.7906 1.114 5.5336 1.7 11.2578 1.7 17.1192 0 47.6365-38.564 86.2325-86.1039 86.2325-47.5397 0-86.1041-38.592-86.1041-86.2325zm86.1041-76.9177c2.1533 0 3.9861-1.6795 4.1452-3.8497.1682-2.2935-1.528-4.29031-3.7187-4.30234-.1433-.00079-.2868-.00118-.4304-.00118-46.9323 0-84.96276 38.09942-84.96276 85.07092s38.03046 85.0665 84.96666 85.0665c46.9359 0 84.9669-38.099 84.9669-85.0665 0-5.7815-.579-11.4268-1.677-16.8837-.463-2.2964-2.798-3.6282-5.026-2.9139-2.078.6659-3.291 2.8984-2.861 5.1297.916 4.7489 1.397 9.6522 1.397 14.6679 0 42.4935-34.396 76.9175-76.7999 76.9175-42.4038 0-76.79584-34.428-76.79584-76.9175s34.39594-76.9177 76.79584-76.9177z" fill="#ff8452" stroke="url(#d)" stroke-linecap="round" stroke-linejoin="round"/><path d="m18.4517 93.5591c0-37.3495 30.2092-67.606 67.4482-67.606 1.2522 0 2.4923.036 3.728.1039.3142.0172.5552.2918.5383.6132s-.2852.568-.5994.5507c-1.2164-.0668-2.436-.1022-3.6669-.1022-36.6321 0-66.3089 29.7573-66.3089 66.4404 0 36.6829 29.6768 66.4399 66.3089 66.4399s66.3091-29.757 66.3091-66.4399c0-5.5183-.675-10.8789-1.944-16.0076-.077-.312.108-.629.413-.7079.305-.079.615.1099.692.422 1.291 5.2209 1.978 10.6776 1.978 16.2935 0 37.3499-30.209 67.6059-67.4481 67.6059-37.239 0-67.4482-30.256-67.4482-67.6059z" fill="#ff9f57" stroke="url(#e)" stroke-linecap="round" stroke-linejoin="round"/></g></svg>