<svg width="119" height="115" viewBox="0 0 119 115" fill="none" xmlns="http://www.w3.org/2000/svg">
<mask id="mask0_1642_121" style="mask-type:alpha" maskUnits="userSpaceOnUse" x="0" y="0" width="119" height="115">
<path d="M59.5 114.208C92.3609 114.208 119 88.6417 119 57.104C119 25.5663 92.3609 0 59.5 0C26.6391 0 0 25.5663 0 57.104C0 88.6417 26.6391 114.208 59.5 114.208Z" fill="url(#paint0_linear_1642_121)"/>
</mask>
<g mask="url(#mask0_1642_121)">
<path d="M55.9062 7.1886C55.9062 4.98317 57.6941 3.19531 59.8995 3.19531C62.105 3.19531 63.8928 4.98317 63.8928 7.1886V107.021C63.8928 109.226 62.105 111.014 59.8995 111.014C57.6941 111.014 55.9062 109.226 55.9062 107.021V7.1886Z" fill="white"/>
<path d="M9.58411 61.4961C7.37867 61.4961 5.59082 59.7082 5.59082 57.5028C5.59082 55.2974 7.37868 53.5095 9.58411 53.5095L109.416 53.5095C111.622 53.5095 113.41 55.2974 113.41 57.5028C113.41 59.7082 111.622 61.4961 109.416 61.4961L9.58411 61.4961Z" fill="white"/>
</g>
<defs>
<linearGradient id="paint0_linear_1642_121" x1="29.745" y1="7.64223" x2="85.6619" y2="108.557" gradientUnits="userSpaceOnUse">
<stop stop-color="#FF5C67"/>
<stop offset="0.0255851" stop-color="#FF5F66"/>
<stop offset="1" stop-color="#FFC848"/>
</linearGradient>
</defs>
</svg>
