<svg width="350" height="350" viewBox="0 0 350 350" fill="none" xmlns="http://www.w3.org/2000/svg">
<path d="M175 350C271.65 350 350 271.65 350 175C350 78.3502 271.65 0 175 0C78.3502 0 0 78.3502 0 175C0 271.65 78.3502 350 175 350Z" fill="url(#paint0_linear_1294_475)"/>
<path d="M211.05 170.469L114.15 125.969L6.50049 223.419C6.50049 223.419 14.5005 263.919 54.5005 302.419C93.7505 340.169 139.5 347.419 139.5 347.419L211.05 170.469Z" fill="url(#paint1_linear_1294_475)" fill-opacity="0.5"/>
<path d="M261.6 84.0693L211.15 170.369C210.95 170.669 210.55 170.819 210.2 170.669L167.8 150.169L261.6 84.0693Z" fill="white"/>
<path d="M149.599 142.47L113.949 126.57C113.699 126.47 113.699 126.07 113.999 125.97L261.599 84.0195L149.599 142.47Z" fill="white"/>
<path d="M167.799 150.119L152.899 179.219L149.599 142.469L261.599 84.0693L167.799 150.119Z" fill="url(#paint2_linear_1294_475)"/>
<path d="M184.35 158.219L152.9 179.219L167.8 150.119L184.35 158.219Z" fill="#FF5C67"/>
<defs>
<linearGradient id="paint0_linear_1294_475" x1="87.4854" y1="23.4202" x2="262.515" y2="326.58" gradientUnits="userSpaceOnUse">
<stop stop-color="#FF5C67"/>
<stop offset="0.0255851" stop-color="#FF5F66"/>
<stop offset="1" stop-color="#FFC848"/>
</linearGradient>
<linearGradient id="paint1_linear_1294_475" x1="134.413" y1="125.974" x2="51.9877" y2="354.268" gradientUnits="userSpaceOnUse">
<stop stop-color="#FAFAFA" stop-opacity="0.8"/>
<stop offset="0.8664" stop-color="white" stop-opacity="0"/>
</linearGradient>
<linearGradient id="paint2_linear_1294_475" x1="96.8763" y1="192.458" x2="255.83" y2="100.138" gradientUnits="userSpaceOnUse">
<stop offset="0.0254101" stop-color="#FF5C67"/>
<stop offset="0.1074" stop-color="#FF6A63"/>
<stop offset="0.3813" stop-color="#FF9257"/>
<stop offset="0.6307" stop-color="#FFB04F"/>
<stop offset="0.8452" stop-color="#FFC24A"/>
<stop offset="1" stop-color="#FFC848"/>
</linearGradient>
</defs>
</svg>
