<svg width="20" height="21" viewBox="0 0 20 21" fill="none" xmlns="http://www.w3.org/2000/svg">
<path d="M16.2508 8.92791C16.2508 10.7198 15.6687 12.3751 14.6882 13.7181L19.6338 18.6644C20.1221 19.1524 20.1221 19.945 19.6338 20.4329C19.1455 20.9209 18.3525 20.9209 17.8642 20.4329L12.9186 15.4866C11.5748 16.4704 9.91845 17.0482 8.1254 17.0482C3.6369 17.0482 0 13.4136 0 8.92791C0 4.44223 3.6369 0.807617 8.1254 0.807617C12.6139 0.807617 16.2508 4.44223 16.2508 8.92791ZM8.1254 14.5496C8.86412 14.5496 9.59561 14.4042 10.2781 14.1217C10.9606 13.8392 11.5807 13.4251 12.1031 12.9031C12.6254 12.381 13.0398 11.7613 13.3225 11.0793C13.6052 10.3972 13.7507 9.66616 13.7507 8.92791C13.7507 8.18965 13.6052 7.45862 13.3225 6.77656C13.0398 6.0945 12.6254 5.47476 12.1031 4.95274C11.5807 4.43071 10.9606 4.01662 10.2781 3.7341C9.59561 3.45158 8.86412 3.30617 8.1254 3.30617C7.38668 3.30617 6.65519 3.45158 5.9727 3.7341C5.29021 4.01662 4.67008 4.43071 4.14773 4.95274C3.62537 5.47476 3.21102 6.0945 2.92832 6.77656C2.64562 7.45862 2.50012 8.18965 2.50012 8.92791C2.50012 9.66616 2.64562 10.3972 2.92832 11.0793C3.21102 11.7613 3.62537 12.381 4.14773 12.9031C4.67008 13.4251 5.29021 13.8392 5.9727 14.1217C6.65519 14.4042 7.38668 14.5496 8.1254 14.5496Z" fill="#F8F8F8"/>
</svg>
