<svg fill="none" height="32" viewBox="0 0 32 32" width="32" xmlns="http://www.w3.org/2000/svg" xmlns:xlink="http://www.w3.org/1999/xlink"><linearGradient id="a"><stop offset="0" stop-color="#ff4944"/><stop offset="1" stop-color="#ffc661"/></linearGradient><linearGradient id="b" gradientUnits="userSpaceOnUse" x1="19.6249" x2="19.6249" xlink:href="#a" y1="-1.72976" y2="25.6744"/><linearGradient id="c" gradientUnits="userSpaceOnUse" x1="19.6071" x2="19.6071" y1="0" y2="24.8726"><stop offset="0" stop-color="#ff6965"/><stop offset="1" stop-color="#ff6965" stop-opacity="0"/></linearGradient><linearGradient id="d" gradientUnits="userSpaceOnUse" x1="15.829" x2="15.829" xlink:href="#a" y1="1.29687" y2="30.9998"/><linearGradient id="e" gradientUnits="userSpaceOnUse" x1="15.7939" x2="15.7939" xlink:href="#a" y1="4.4707" y2="27.7572"/><clipPath id="f"><path d="m0 0h32v32h-32z"/></clipPath><g clip-path="url(#f)"><path d="m31.9627 5.84902c-.5215-2.55609-4.223-.26645-5.2262-.68644-.8211-.34413-.9696-1.28256-.9731-1.90759.0283-.05961.0566-.11922.0866-.17793.0849-.1689.1458-.34593.1847-.52387.1706-.81018-.1078-1.704361-.7945-2.222805-.8264-.630444-2.0444-.3513507-2.6295.774955-1.1454 2.21559-1.9692 4.68497-2.3881 7.32055-.0292-.01716-.0557-.02981-.0822-.03974-1.3267-.7876-2.8787-1.22295-4.5324-1.18231-4.5809.11561-8.30368 3.94076-8.39206 8.62386-.09281 4.918 3.76336 8.9382 8.54676 8.9726 4.7312.0343 8.6369-3.8983 8.6714-8.7332.0097-1.3214-.2669-2.576-.7681-3.7032-.0123-.0271-.0168-.056-.0123-.0858.0618-.4724.517-4.80149 1.1269-6.61875.1219-.3658.2536-.72438.3968-1.07754.0177.25019.0866.504.2289.74786.5621.96012 2.4624 1.95998 2.6295 3.07996.1113.75328-1.2074 1.70617-1.2869 1.76487.167-.0488 5.7458-1.72061 5.2155-4.32458z" fill="url(#b)"/><path clip-rule="evenodd" d="m22.5887 1.1175c.589-1.1370812 1.8182-1.42224 2.6542-.782658.6924.524231.9726 1.427808.8008 2.245978v.00016c-.0392.17974-.1006.35862-.1861.52932l-.0001.00014c-.0291.05709-.0566.11509-.0842.17341.0021.31086.0402.6973.1782 1.04847.1385.35251.3773.66873.7812.83848.1208.05073.2843.06122.4813.04387.1965-.01732.424-.06213.6715-.11998.1654-.03866.3398-.08317.5195-.12905.3571-.09113.7353-.18766 1.1061-.25445.5578-.10044 1.104-.13476 1.5442.0185.2206.07678.4147.20068.5701.38685.1539.18427.269.42862.335.74654l.0017.00091.002.00951c.134.66019-.1186 1.25989-.5713 1.78701-.4525.52691-1.1067.98346-1.7811 1.35919-1.3491.75158-2.7849 1.1828-2.8687 1.2073l-.0169-.0355c.0015-.0011.0033-.0025.0056-.0041.0594-.0438.3937-.29003.7058-.61647.162-.16945.3173-.35986.4252-.55421.108-.1946.1672-.39092.1404-.57314-.041-.27534-.1885-.54488-.3976-.81018-.209-.26519-.4782-.52458-.7608-.77977-.1027-.09276-.2072-.18506-.3112-.27684-.1814-.1602-.3611-.31884-.5262-.4757-.2596-.24684-.4852-.49125-.627-.73414v-.00002c-.1284-.22072-.1977-.4495-.2237-.6764-.1312.32894-.2526.66268-.3657 1.00269v.00004c-.3038.9078-.5694 2.44459-.7669 3.81504-.1522 1.0567-.2638 2.0127-.321 2.5037-.017.1456-.0292.2504-.0363.3047l-.0001.0003c-.0038.0258 0 .0508.0108.0745v.0001c.5015 1.1313.7784 2.3903.7686 3.7164-.0344 4.8522-3.9428 8.7988-8.6774 8.7643-4.7867-.0344-8.64553-4.069-8.55266-9.0045.08844-4.6999 3.81366-8.53859 8.39796-8.65461 1.6541-.04077 3.2067.39579 4.534 1.18566.0193.00735.0386.01608.0588.02679.42-2.6306 1.2413-5.0956 2.3819-7.30811zm.0346.01879c-1.1427 2.2165-1.9644 4.68698-2.3824 7.32378l-.0045.02867-.0246-.0145c-.0282-.01666-.0537-.02882-.079-.03834l-.0016-.00061-.0015-.00088c-1.3215-.7868-2.8675-1.22172-4.5149-1.18112-4.5632.1155-8.27165 3.93681-8.35969 8.61531-.09245 4.9131 3.74889 8.9293 8.51379 8.9636 4.7129.0343 8.6036-3.8944 8.638-8.7245.0097-1.3201-.2659-2.5734-.7651-3.6994-.0139-.0305-.0189-.0633-.0139-.0971.007-.0538.0191-.1579.036-.3028.0572-.4904.169-1.4484.3214-2.50596.1974-1.37002.4634-2.91034.7685-3.82215.1219-.36665.2536-.72609.3967-1.08012l.0376.00622c.0175.24768.0855.49874.2259.74001.1388.23777.3609.479.62.72529.1646.15644.3432.31412.5242.47391.1041.0919.209.1845.3125.27795.2828.25545.5541.5167.7653.78466.2111.26785.3633.54398.4058.82935v.00003c.0287.1949-.035.40068-.145.59895-.1102.19852-.2681.39173-.4313.56245-.2395.25046-.4917.45391-.6248.55621.37-.1165 1.5935-.52518 2.7523-1.17073.6727-.37479 1.3222-.82866 1.7704-1.35045.4457-.51904.6906-1.10312.5642-1.74287l-.0017-.00088-.0019-.0095c-.0646-.31729-.1781-.55813-.3284-.73817-.1502-.17998-.3381-.30015-.5529-.37493-.4304-.14984-.9683-.11718-1.5248-.01697-.3696.06657-.7452.16245-1.1014.25337-.1802.04599-.3553.09071-.5223.12973-.2479.05796-.4776.10327-.6769.12083-.1989.01753-.3699.00768-.4995-.04672l.0074-.01856-.0074.01856c-.416-.17483-.6612-.50071-.8026-.86062-.1413-.3595-.1794-.75369-.1811-1.06786l-.0001-.00467.002-.0042c.0282-.0596.0566-.11953.0867-.1786 0-.00003.0001-.00007.0001-.0001l.0173.00929-.0174-.00916c0-.00001 0-.00002 0-.00003.0839-.16751.1443-.34314.1827-.5197v.00013l.0192.00422-.0192-.00437v.00002c.1688-.80422-.1069-1.691223-.7858-2.205192l-.0001-.00006c-.8141-.622888-2.0169-.3491331-2.5962.769282z" fill="url(#c)" fill-rule="evenodd"/><path d="m17.4953 12.1848c-3.8882-.0361-3.9634 5.3769-7.85164 5.3408-1.04482-.0099-1.803-.4078-2.42937-.9853.26807 4.6082 4.01651 8.2608 8.60271 8.2608 4.2439 0 7.7703-3.1284 8.486-7.2466-3.008-.7877-3.2433-5.3373-6.8077-5.3697z" fill="#fff" fill-opacity=".3" opacity=".8"/><path clip-rule="evenodd" d="m17.4953 12.1848-.0004.04c-1.9217-.0179-2.9014 1.3079-3.894 2.6544l-.0038.0052c-.9879 1.3402-1.9898 2.6995-3.95381 2.6813-1.01644-.0097-1.76521-.3832-2.38363-.9309.31334 4.5414 4.02424 8.1263 8.55734 8.1263 4.212 0 7.7141-3.0957 8.4409-7.1773-.7441-.2035-1.3187-.6356-1.8148-1.1685-.4115-.442-.7708-.9552-1.1281-1.4657-.0796-.1136-.1591-.2272-.239-.3397-.8801-1.2395-1.8198-2.3691-3.5811-2.3851zm6.8077 5.3697c-1.3668-.3579-2.1611-1.4926-2.9554-2.6272-.9538-1.3624-1.9075-2.7248-3.8523-2.7425-1.9441-.0181-2.935 1.3261-3.9258 2.6704-.9909 1.3442-1.9817 2.6885-3.92584 2.6704-1.02177-.0097-1.76941-.3905-2.38772-.9474-.01395-.0125-.02783-.0252-.04165-.0379.00111.019.00227.038.0035.057.2955 4.5812 4.03191 8.2038 8.59921 8.2038 4.2439 0 7.7703-3.1284 8.486-7.2466z" fill="#ff6965" fill-rule="evenodd" opacity=".8"/><path d="m17.0381 20.5874c-4.3853-.0358-4.3013-5.4117-8.68746-5.4475-.39971-.0036-.76317.0385-1.09832.1173-.02476.2679-.03803.5403-.03803.8145 0 4.8203 3.85651 8.7286 8.61501 8.7286 4.7584 0 8.6149-3.9074 8.6149-8.7286 0-.19-.0071-.379-.0185-.5654-3.0067 1.0089-3.5532 5.1125-7.3876 5.0811z" fill="#fff" fill-opacity=".4" opacity=".8"/><path clip-rule="evenodd" d="m8.35032 15.1796h-.00003c-.38576-.0035-.73712.036-1.06148.1099-.02298.2575-.03525.5191-.03525.7822 0 4.7984 3.83894 8.6889 8.57574 8.6889 4.7367 0 8.5757-3.8896 8.5757-8.6889 0-.1714-.0058-.3422-.0155-.5111-1.2482.4366-2.066 1.4132-2.8921 2.3995-.1409.1683-.282.3368-.4256.503-.9937 1.1504-2.099 2.1799-4.034 2.1641-2.2112-.0181-3.2971-1.3843-4.3708-2.735l-.0029-.0037c-1.0762-1.3539-2.1412-2.6911-4.31378-2.7089zm16.03678.3399c.0128-.0045.0257-.0089.0386-.0132.0008.0137.0016.0274.0024.0411.01.173.0161.3483.0161.5243 0 4.8212-3.8565 8.7286-8.6149 8.7286-4.7585 0-8.61501-3.9083-8.61501-8.7286 0-.2742.01327-.5466.03803-.8145.33515-.0788.69861-.1209 1.09832-.1173 2.19316.0179 3.26876 1.3709 4.34426 2.7239 1.0753 1.3529 2.1507 2.7057 4.3432 2.7236 2.1932.0179 3.3107-1.3169 4.4281-2.6516.8279-.9888 1.6558-1.9777 2.9209-2.4163z" fill="#ff6965" fill-rule="evenodd" opacity=".8"/><path d="m7.99051 19.8283c1.40735 2.9446 4.36799 4.9736 7.79289 4.9736 2.6502 0 5.0227-1.2152 6.6125-3.1289-4.6002-.1535-4.5957-3.7675-9.3676-3.792-2.5158-.0127-3.75409.9854-5.0369 1.9473z" fill="#fff" fill-opacity=".5" opacity=".8"/><g clip-rule="evenodd" fill-rule="evenodd"><path d="m8.00842 19.8655c-.0057-.0117-.01137-.0235-.01702-.0353-.0003-.0007-.00059-.0013-.00089-.0019h.00089c.00058-.0004.00117-.0009.00175-.0013.04327-.0325.08648-.0649.1297-.0974 1.23751-.9302 2.47565-1.8609 4.90545-1.8486 2.4296.0125 3.621.9555 4.8124 1.8984 1.14.9024 2.28 1.8047 4.5048 1.8917.0167.0007.0335.0013.0504.0019-.0109.0131-.0218.0261-.0328.0391-1.5894 1.8911-3.9477 3.0898-6.5797 3.0898-3.4105 0-6.36053-2.0119-7.77498-4.9364zm.03232-.0242c1.40684 2.9147 4.34536 4.9203 7.74266 4.9203 2.6088 0 4.9473-1.1829 6.5293-3.0515-2.2169-.0948-3.3599-.9995-4.4957-1.8984-.0216-.0171-.0431-.0342-.0647-.0513-.5853-.4629-1.1726-.919-1.9104-1.2615-.7372-.3422-1.6261-.5715-2.8138-.5776-2.4166-.0122-3.64587.9117-4.88224 1.841-.03503.0263-.07006.0527-.10512.079z" fill="#ff6965" opacity=".8"/><path d="m1 16.1487c0-8.20471 6.64164-14.85182 14.8284-14.85182.0251 0 .0501.00006.0751.0002.5001.00275.8715.45534.8348.95669-.0355.48355-.441.84866-.9093.84866-7.19821 0-13.03002 5.84373-13.03002 13.04627 0 7.2025 5.83114 13.0462 13.03002 13.0462 7.199 0 13.0308-5.8431 13.0308-13.0462 0-.8507-.0816-1.6821-.2369-2.4873-.092-.4772.1661-.9663.6264-1.1139.4867-.156 1.0112.1332 1.1159.6529.1919.953.2929 1.9388.2929 2.9483 0 8.204-6.6417 14.8511-14.8291 14.8511-8.18735 0-14.829-6.6465-14.829-14.8511zm14.829-13.24697c.3709 0 .6865-.28924.7139-.66299.029-.395-.2631-.7389-.6404-.74097-.0247-.00013-.0494-.0002-.0741-.0002-8.08282 0-14.63251 6.56156-14.63251 14.65113 0 8.0895 6.54969 14.6504 14.63311 14.6504 8.0835 0 14.6332-6.5616 14.6332-14.6504 0-.9957-.0996-1.968-.2889-2.9078-.0796-.3955-.4818-.6248-.8655-.5018-.3578.1147-.5668.4991-.4927.8834.1577.8179.2406 1.6624.2406 2.5262 0 7.3183-5.9238 13.2469-13.2267 13.2469-7.30284 0-13.22591-5.9293-13.22591-13.2469 0-7.31766 5.92374-13.24697 13.22591-13.24697z" fill="#ff8452" stroke="url(#d)" stroke-linecap="round" stroke-linejoin="round"/><path d="m4.1778 16.114c0-6.43245 5.20269-11.6433 11.6161-11.6433.2156 0 .4292.0062.642.01789.0541.00297.0956.05026.0927.10561-.0029.05536-.0491.09782-.1032.09485-.2095-.01151-.4196-.0176-.6315-.0176-6.30889 0-11.41989 5.12486-11.41989 11.44255 0 6.3176 5.111 11.4425 11.41989 11.4425 6.3088 0 11.4198-5.1249 11.4198-11.4425 0-.9504-.1162-1.8736-.3347-2.7569-.0133-.0537.0185-.1083.0711-.1219.0525-.0136.1059.0189.1192.0726.2224.8992.3407 1.839.3407 2.8062 0 6.4324-5.2027 11.6432-11.6161 11.6432-6.41341 0-11.6161-5.2108-11.6161-11.6432z" fill="#ff9f57" stroke="url(#e)" stroke-linecap="round" stroke-linejoin="round"/></g></g></svg>