<svg fill="none" height="429" viewBox="0 0 430 429" width="430" xmlns="http://www.w3.org/2000/svg" xmlns:xlink="http://www.w3.org/1999/xlink"><linearGradient id="a" gradientUnits="userSpaceOnUse" x1="258.345" x2="258.345" y1="-23.9374" y2="355.295"><stop offset="0" stop-color="#ff4944"/><stop offset="1" stop-color="#ffc661"/></linearGradient><linearGradient id="b" gradientUnits="userSpaceOnUse" x1="258.098" x2="258.098" y1="0" y2="344.2"><stop offset="0" stop-color="#ff6965"/><stop offset="1" stop-color="#ff6965" stop-opacity="0"/></linearGradient><path d="m429.483 80.9418c-7.233-35.3726-58.578-3.6873-72.493-9.4994-11.389-4.7621-13.449-17.7487-13.498-26.3981.393-.825.785-1.6499 1.202-2.4624 1.177-2.3373 2.023-4.7871 2.562-7.2495 2.366-11.2117-1.496-23.5859-11.022-30.76037-11.462-8.7244-28.357-4.862164-36.473 10.72427-15.888 30.6604-27.315 64.833-33.126 101.3057-.404-.238-.772-.413-1.14-.55-18.402-10.899-39.93-16.924-62.869-16.3615-63.542 1.5995-115.181 54.5335-116.407 119.3415-1.2872 68.058 52.203 123.692 118.553 124.167 65.627.475 119.803-53.947 120.281-120.854.135-18.287-3.702-35.648-10.653-51.247-.172-.375-.233-.775-.172-1.187.858-6.537 7.172-66.446 15.631-91.594 1.692-5.0622 3.519-10.0243 5.505-14.9115.245 3.4623 1.202 6.9745 3.175 10.3493 7.798 13.2866 34.156 27.1232 36.473 42.6222 1.545 10.424-16.747 23.611-17.85 24.423 2.317-.675 79.701-23.811 72.346-59.8457z" fill="url(#a)"/><path clip-rule="evenodd" d="m299.455 15.4645c8.171-15.735475 25.221-19.68164 36.818-10.83078 9.604 7.25458 13.49 19.75868 11.108 31.08108l-.001.0021c-.543 2.4874-1.395 4.9628-2.581 7.3251l-.001.0018c-.405.7902-.786 1.5928-1.169 2.3998.03 4.3019.559 9.6496 2.473 14.5092 1.921 4.8783 5.233 9.2544 10.835 11.6034 1.676.702 3.944.8472 6.676.607 2.727-.2396 5.882-.8597 9.315-1.6602 2.294-.535 4.713-1.151 7.207-1.7859 4.952-1.2611 10.198-2.5969 15.343-3.5212 7.736-1.39 15.313-1.865 21.419.256 3.059 1.0625 5.752 2.7771 7.908 5.3534 2.134 2.5501 3.731 5.9314 4.646 10.331l.025.0127.026.1315c1.86 9.1361-1.644 17.4351-7.924 24.7295-6.277 7.292-15.35 13.61-24.706 18.809-18.713 10.401-38.629 16.368-39.792 16.708l-.234-.492c.02-.015.046-.034.077-.057.825-.606 5.462-4.013 9.791-8.531 2.247-2.344 4.402-4.979 5.898-7.669 1.498-2.693 2.319-5.41 1.947-7.931-.568-3.811-2.614-7.541-5.514-11.212-2.899-3.67-6.634-7.2595-10.553-10.7908-1.425-1.2838-2.875-2.5611-4.317-3.8312-2.517-2.2169-5.01-4.4122-7.299-6.5829-3.602-3.4159-6.73-6.7982-8.697-10.1594v-.0004c-1.782-3.0544-2.743-6.2204-3.104-9.3603-1.82 4.552-3.504 9.1705-5.072 13.8758v.0005c-4.214 12.5626-7.898 33.8297-10.638 52.7947-2.112 14.623-3.659 27.852-4.453 34.647-.236 2.016-.405 3.465-.503 4.217l-.001.004c-.053.357-.001.703.149 1.03l.001.003c6.956 15.655 10.796 33.078 10.661 51.429-.478 67.147-54.691 121.762-120.365 121.285-66.396-.476-119.9231-56.309-118.6349-124.609 1.2268-65.039 52.8999-118.162 116.4879-119.7672h.001c22.944-.5642 44.481 5.4772 62.891 16.4082.269.101.536.222.816.37 5.826-36.4032 17.219-70.5151 33.04-101.133zm.48.2601c-15.849 30.6731-27.248 64.8608-33.045 101.3504l-.063.397-.341-.201c-.392-.231-.745-.399-1.096-.531l-.023-.008-.02-.012c-18.331-10.888-39.776-16.9071-62.626-16.345-63.297 1.598-114.7373 54.48-115.9586 119.223-1.2823 67.991 52.0016 123.569 118.0956 124.043 65.373.475 119.342-53.893 119.818-120.734.134-18.268-3.688-35.612-10.613-51.195-.192-.422-.262-.876-.193-1.343.098-.745.266-2.185.5-4.19.794-6.787 2.344-20.044 4.458-34.679 2.738-18.959 6.428-40.2751 10.661-52.8931 1.691-5.074 3.516-10.0482 5.502-14.9474l.522.0862c.242 3.4274 1.185 6.9017 3.133 10.2405 1.925 3.2904 5.006 6.6287 8.6 10.037 2.283 2.1649 4.76 4.347 7.271 6.5583 1.444 1.2717 2.899 2.5531 4.334 3.8463 3.923 3.5351 7.687 7.1502 10.617 10.8582 2.928 3.707 5.039 7.528 5.628 11.477v.001c.399 2.697-.485 5.545-2.011 8.288-1.529 2.748-3.719 5.421-5.983 7.784-3.321 3.466-6.82 6.281-8.666 7.696 5.132-1.611 22.104-7.267 38.177-16.2 9.331-5.187 18.341-11.468 24.557-18.689 6.183-7.1822 9.579-15.265 7.827-24.1182l-.024-.0122-.027-.1315c-.895-4.3907-2.469-7.7236-4.554-10.2151-2.084-2.4907-4.69-4.1537-7.67-5.1885-5.97-2.0736-13.432-1.6217-21.15-.2348-5.127.9211-10.337 2.248-15.278 3.5062-2.499.6364-4.929 1.2553-7.245 1.7953-3.439.802-6.625 1.4291-9.389 1.6721-2.759.2426-5.132.1062-6.929-.6466l.103-.2568-.103.2568c-5.77-2.4193-9.172-6.9291-11.133-11.9096-1.96-4.9749-2.488-10.43-2.513-14.7777v-.0645l.028-.0581c.391-.8249.784-1.6542 1.202-2.4716 0-.0005.001-.001.001-.0015l.241.1286-.242-.1267c0-.0001 0-.0003 0-.0004 1.164-2.3182 2.001-4.7486 2.535-7.1919 0 .0006 0 .0012-.001.0018l.266.0583-.265-.0604v.0003c2.341-11.1292-1.484-23.404-10.901-30.51662l-.001-.00083c-11.293-8.61985-27.976-4.831488-36.013 10.64575z" fill="url(#b)" fill-rule="evenodd"/><path d="m228.805 168.61c-53.934-.5-54.977 74.409-108.911 73.91-14.493-.138-25.0094-5.644-33.6977-13.636 3.7183 63.771 55.7127 114.317 119.3297 114.317 58.867 0 107.781-43.292 117.709-100.282-41.724-10.901-44.988-73.86-94.43-74.309z" fill="#fff" fill-opacity=".3" opacity=".8"/><path clip-rule="evenodd" d="m228.805 168.61-.005.554c-26.657-.247-40.247 18.099-54.015 36.733l-.053.072c-13.703 18.547-27.601 37.357-54.843 37.105-14.099-.134-24.4852-5.303-33.0634-12.882 4.3463 62.846 55.8204 112.456 118.7004 112.456 58.424 0 107.002-42.84 117.084-99.323-10.323-2.816-18.292-8.797-25.174-16.171-5.708-6.116-10.691-13.218-15.648-20.282-1.104-1.573-2.206-3.144-3.315-4.702-12.208-17.153-25.242-32.784-49.673-33.006zm94.43 74.309c-18.959-4.953-29.977-20.655-40.995-36.357-13.23-18.853-26.459-37.707-53.435-37.952-26.967-.25-40.711 18.352-54.455 36.955-13.745 18.602-27.489 37.204-54.456 36.955-14.173-.135-24.5435-5.404-33.12-13.111-.1935-.174-.386-.349-.5777-.525.0153.263.0315.526.0485.788 4.0989 63.399 55.9272 113.529 119.2812 113.529 58.867 0 107.781-43.292 117.709-100.282z" fill="#ff6965" fill-rule="evenodd" opacity=".8"/><path d="m222.463 284.901c-60.829-.496-59.663-74.89-120.504-75.386-5.5448-.05-10.5863.533-15.2353 1.624-.3434 3.707-.5274 7.477-.5274 11.271 0 66.706 53.4937 120.791 119.4987 120.791s119.499-54.072 119.499-120.791c0-2.629-.098-5.245-.258-7.824-41.705 13.961-49.286 70.749-102.473 70.315z" fill="#fff" fill-opacity=".4" opacity=".8"/><path clip-rule="evenodd" d="m101.954 210.065c-5.3512-.048-10.2249.497-14.7241 1.521-.3187 3.563-.489 7.182-.489 10.824 0 66.403 53.2501 120.241 118.9541 120.241s118.954-53.826 118.954-120.241c0-2.372-.08-4.736-.213-7.072-17.314 6.041-28.659 19.556-40.117 33.205-1.955 2.329-3.912 4.661-5.904 6.96-13.784 15.92-29.116 30.167-55.956 29.948-30.671-.25-45.734-19.156-60.628-37.849l-.04-.05c-14.928-18.736-29.7-37.242-59.837-37.487zm222.448 4.703c.177-.062.356-.122.534-.182.012.189.023.378.034.568.14 2.395.224 4.82.224 7.256 0 66.719-53.494 120.791-119.499 120.791s-119.4987-54.085-119.4987-120.791c0-3.794.184-7.564.5274-11.271 4.649-1.091 9.6905-1.674 15.2353-1.624 30.422.248 45.341 18.972 60.259 37.695 14.916 18.722 29.832 37.443 60.245 37.691 30.422.248 45.923-18.224 61.423-36.695 11.484-13.684 22.967-27.367 40.516-33.438z" fill="#ff6965" fill-rule="evenodd" opacity=".8"/><path d="m96.9707 274.373c19.5213 40.749 60.5883 68.828 108.0963 68.828 36.76 0 69.67-16.817 91.721-43.3-63.808-2.124-63.747-52.136-129.937-52.476-34.897-.175-52.074 13.638-69.868 26.948z" fill="#fff" fill-opacity=".5" opacity=".8"/><g clip-rule="evenodd" fill-rule="evenodd"><path d="m97.2191 274.889c-.079-.163-.1577-.326-.2361-.49-.0041-.008-.0082-.017-.0123-.026h.0123l.0243-.018c.6002-.449 1.1996-.898 1.7991-1.348 17.1656-12.872 34.3406-25.751 68.0446-25.582 33.701.173 50.227 13.223 66.753 26.272 15.813 12.487 31.626 24.974 62.486 26.179.232.009.465.017.698.025-.15.181-.302.362-.453.542-22.048 26.17-54.759 42.758-91.268 42.758-47.308 0-88.228-27.842-107.8479-68.312zm.4483-.336c19.5146 40.335 60.2746 68.091 107.3996 68.091 36.186 0 68.624-16.37 90.568-42.229-30.751-1.312-46.606-13.831-62.36-26.272-.3-.236-.599-.472-.898-.708-8.119-6.407-16.265-12.719-26.499-17.458-10.226-4.736-22.556-7.91-39.03-7.994-33.522-.169-50.573 12.617-67.7225 25.477-.4858.365-.9717.729-1.4581 1.093z" fill="#ff6965" opacity=".8"/><path d="m0 223.484c0-113.541 92.1267-205.527 205.686-205.527.347 0 .695.001 1.042.0029 6.937.038 12.089 6.3012 11.579 13.2392-.492 6.6916-6.117 11.7441-12.612 11.7441-99.848 0-180.7412 80.8688-180.7412 180.5408s80.8842 180.54 180.7412 180.54 180.75-80.859 180.75-180.54c0-11.772-1.131-23.277-3.285-34.42-1.277-6.604 2.304-13.373 8.688-15.414 6.751-2.159 14.027 1.842 15.479 9.034 2.661 13.188 4.063 26.83 4.063 40.8 0 113.531-92.127 205.517-205.695 205.517-113.5682 0-205.695-91.977-205.695-205.517zm205.695-183.3181c5.144 0 9.522-4.0027 9.902-9.1749.402-5.4662-3.65-10.2252-8.883-10.2538-.343-.0019-.686-.0028-1.028-.0028-112.1175 0-202.96876 90.8026-202.96876 202.7496s90.85116 202.74 202.97776 202.74c112.126 0 202.977-90.803 202.977-202.74 0-13.779-1.382-27.234-4.007-40.239-1.104-5.473-6.683-8.647-12.006-6.945-4.963 1.587-7.862 6.908-6.834 12.226 2.188 11.318 3.337 23.004 3.337 34.958 0 101.274-82.169 183.318-183.467 183.318-101.299 0-183.4584-82.053-183.4584-183.318s82.1684-183.3181 183.4584-183.3181z" fill="#ff8452"/><path d="m44.0771 222.981c0-89.015 72.1669-161.1255 161.1279-161.1255 2.991 0 5.954.0857 8.905.2475.751.0411 1.327.6955 1.286 1.4615-.04.766-.681 1.3537-1.431 1.3125-2.906-.1593-5.82-.2435-8.76-.2435-87.511 0-158.4061 70.9205-158.4061 158.3475s70.8951 158.347 158.4061 158.347c87.51 0 158.406-70.92 158.406-158.347 0-13.152-1.612-25.928-4.643-38.151-.185-.744.257-1.499.985-1.687.729-.189 1.469.262 1.653 1.005 3.086 12.444 4.726 25.448 4.726 38.833 0 89.015-72.167 161.125-161.127 161.125-88.961 0-161.1279-72.11-161.1279-161.125z" fill="#ff9f57"/></g></svg>